<svg width="31" height="25" viewBox="0 0 31 25" fill="none" xmlns="http://www.w3.org/2000/svg">
<path d="M10.6548 14.9859L13.3788 18.5164L10.0298 19.8383C9.70463 19.965 9.371 19.6694 9.46391 19.3315L10.6548 14.9859Z" fill="#283993"/>
<path d="M29.6631 0.543205L0.675854 8.53329C0.587169 8.55863 0.5745 8.67687 0.654738 8.7191L8.24363 12.6424C8.27319 12.6592 8.3112 12.6592 8.34076 12.6424L29.7349 0.729021C29.8405 0.669898 29.7729 0.509421 29.6589 0.543205H29.6631Z" fill="#4B99D3"/>
<path d="M30.2124 0.90632L10.9506 14.2641C10.8746 14.3148 10.8619 14.4204 10.9168 14.4922L18.6452 23.9563C18.717 24.045 18.8563 24.0281 18.907 23.9267L30.4404 1.10481C30.5122 0.961221 30.3433 0.81341 30.2124 0.90632Z" fill="#4B99D3"/>
<path d="M8.39978 13.1365L8.75875 18.5886C8.77564 18.8504 9.14728 18.8842 9.21063 18.6308L10.372 13.9811L20.7778 6.73841C20.8538 6.68773 20.7821 6.56949 20.7018 6.61594L8.39978 13.1407V13.1365Z" fill="#3A4060"/>
</svg>
